<svg xmlns="http://www.w3.org/2000/svg" xmlns:xlink="http://www.w3.org/1999/xlink" width="600" zoomAndPan="magnify" viewBox="0 0 450 449.999984" height="600" preserveAspectRatio="xMidYMid meet" version="1.0"><defs><clipPath id="id1"><path d="M 8.769531 0 L 441.519531 0 L 441.519531 450 L 8.769531 450 Z M 8.769531 0 " clip-rule="nonzero"/></clipPath></defs><g clip-path="url(#id1)"><path fill="rgb(31.759644%, 56.469727%, 88.62915%)" d="M 8.832031 174.242188 L 8.832031 351.976562 L 52.992188 377.441406 L 52.992188 127.988281 L 135.046875 80.671875 L 282.027344 227.460938 L 326.1875 271.566406 L 326.1875 36.054688 L 301.195312 21.644531 C 294.816406 17.964844 288.425781 14.757812 282.027344 12.015625 C 237.621094 -7 192.679688 -3.484375 147.40625 22.617188 L 142.316406 25.554688 L 116.988281 40.15625 L 102.71875 48.386719 L 8.832031 102.523438 Z M 441.460938 280.257812 L 441.460938 102.523438 L 397.300781 77.058594 L 397.300781 326.511719 L 315.242188 373.828125 L 168.265625 227.039062 L 124.101562 182.933594 L 124.101562 418.445312 L 149.097656 432.855469 C 155.476562 436.53125 161.863281 439.742188 168.265625 442.480469 C 212.671875 461.496094 257.613281 457.984375 302.882812 431.882812 L 307.976562 428.945312 L 333.304688 414.34375 L 347.574219 406.113281 L 441.460938 351.976562 Z M 275.570312 396.582031 C 240.121094 415.320312 206.996094 415.308594 171.175781 394.660156 L 168.265625 392.980469 L 168.265625 289.414062 Z M 174.722656 57.917969 C 210.171875 39.179688 243.296875 39.191406 279.117188 59.839844 L 282.027344 61.519531 L 282.027344 165.085938 Z M 174.722656 57.917969 " fill-opacity="1" fill-rule="evenodd"/></g></svg>