<svg xmlns="http://www.w3.org/2000/svg" xmlns:xlink="http://www.w3.org/1999/xlink" width="500" zoomAndPan="magnify" viewBox="0 0 375 374.999991" height="500" preserveAspectRatio="xMidYMid meet" version="1.0"><defs><g/><clipPath id="id1"><path d="M 129.886719 66.324219 L 245.386719 66.324219 L 245.386719 187.824219 L 129.886719 187.824219 Z M 129.886719 66.324219 " clip-rule="nonzero"/></clipPath></defs><rect x="-37.5" width="450" fill="rgb(100%, 100%, 100%)" y="-37.499999" height="449.999989" fill-opacity="1"/><rect x="-37.5" width="450" fill="rgb(100%, 100%, 100%)" y="-37.499999" height="449.999989" fill-opacity="1"/><rect x="-37.5" width="450" fill="rgb(100%, 100%, 100%)" y="-37.499999" height="449.999989" fill-opacity="1"/><rect x="-37.5" width="450" fill="rgb(100%, 100%, 100%)" y="-37.499999" height="449.999989" fill-opacity="1"/><g clip-path="url(#id1)"><path fill="rgb(36.079407%, 90.19928%, 70.588684%)" d="M 129.902344 112.90625 L 129.902344 160.417969 L 141.6875 167.226562 L 141.6875 100.539062 L 163.589844 87.890625 L 202.820312 127.132812 L 214.605469 138.921875 L 214.605469 75.964844 L 207.933594 72.113281 C 206.234375 71.128906 204.527344 70.269531 202.820312 69.539062 C 190.964844 64.453125 178.972656 65.394531 166.886719 72.371094 L 165.527344 73.15625 L 158.769531 77.058594 L 154.960938 79.261719 L 129.902344 93.734375 Z M 245.375 141.246094 L 245.375 93.734375 L 233.585938 86.925781 L 233.585938 153.609375 L 211.683594 166.257812 L 172.457031 127.019531 L 160.667969 115.230469 L 160.667969 178.1875 L 167.339844 182.039062 C 169.042969 183.023438 170.746094 183.878906 172.457031 184.613281 C 184.308594 189.695312 196.300781 188.757812 208.386719 181.78125 L 209.746094 180.996094 L 216.503906 177.089844 L 220.3125 174.890625 L 245.375 160.417969 Z M 201.09375 172.34375 C 191.632812 177.351562 182.792969 177.347656 173.230469 171.828125 L 172.457031 171.378906 L 172.457031 143.695312 Z M 174.179688 81.808594 C 183.640625 76.800781 192.480469 76.800781 202.042969 82.324219 L 202.820312 82.773438 L 202.820312 110.457031 Z M 174.179688 81.808594 " fill-opacity="1" fill-rule="evenodd"/></g><g fill="rgb(0%, 0%, 0%)" fill-opacity="1"><g transform="translate(141.668569, 212.104919)"><g><path d="M 14.375 0 L 10.546875 0 L 4.375 -10.734375 L 4.296875 -10.734375 C 4.410156 -8.835938 4.46875 -7.484375 4.46875 -6.671875 L 4.46875 0 L 1.78125 0 L 1.78125 -14.1875 L 5.578125 -14.1875 L 11.75 -3.5625 L 11.8125 -3.5625 C 11.71875 -5.40625 11.671875 -6.707031 11.671875 -7.46875 L 11.671875 -14.1875 L 14.375 -14.1875 Z M 14.375 0 "/></g></g></g><g fill="rgb(0%, 0%, 0%)" fill-opacity="1"><g transform="translate(160.274663, 212.104919)"><g><path d="M 6.046875 -8.953125 C 5.421875 -8.953125 4.925781 -8.75 4.5625 -8.34375 C 4.207031 -7.945312 4.003906 -7.382812 3.953125 -6.65625 L 8.109375 -6.65625 C 8.097656 -7.382812 7.90625 -7.945312 7.53125 -8.34375 C 7.164062 -8.75 6.671875 -8.953125 6.046875 -8.953125 Z M 6.46875 0.1875 C 4.71875 0.1875 3.347656 -0.289062 2.359375 -1.25 C 1.378906 -2.21875 0.890625 -3.582031 0.890625 -5.34375 C 0.890625 -7.164062 1.34375 -8.570312 2.25 -9.5625 C 3.164062 -10.550781 4.425781 -11.046875 6.03125 -11.046875 C 7.5625 -11.046875 8.753906 -10.609375 9.609375 -9.734375 C 10.460938 -8.867188 10.890625 -7.664062 10.890625 -6.125 L 10.890625 -4.6875 L 3.890625 -4.6875 C 3.921875 -3.84375 4.171875 -3.1875 4.640625 -2.71875 C 5.109375 -2.25 5.757812 -2.015625 6.59375 -2.015625 C 7.25 -2.015625 7.867188 -2.082031 8.453125 -2.21875 C 9.035156 -2.351562 9.644531 -2.566406 10.28125 -2.859375 L 10.28125 -0.578125 C 9.757812 -0.316406 9.203125 -0.125 8.609375 0 C 8.023438 0.125 7.3125 0.1875 6.46875 0.1875 Z M 6.46875 0.1875 "/></g></g></g><g fill="rgb(0%, 0%, 0%)" fill-opacity="1"><g transform="translate(174.464473, 212.104919)"><g><path d="M 3.78125 -5.546875 L 0.28125 -10.84375 L 3.640625 -10.84375 L 5.75 -7.390625 L 7.875 -10.84375 L 11.234375 -10.84375 L 7.703125 -5.546875 L 11.390625 0 L 8.03125 0 L 5.75 -3.71875 L 3.453125 0 L 0.09375 0 Z M 3.78125 -5.546875 "/></g></g></g><g fill="rgb(0%, 0%, 0%)" fill-opacity="1"><g transform="translate(188.401923, 212.104919)"><g><path d="M 6.125 -2.171875 C 6.644531 -2.171875 7.265625 -2.28125 7.984375 -2.5 L 7.984375 -0.296875 C 7.242188 0.0234375 6.335938 0.1875 5.265625 0.1875 C 4.085938 0.1875 3.226562 -0.109375 2.6875 -0.703125 C 2.144531 -1.296875 1.875 -2.191406 1.875 -3.390625 L 1.875 -8.625 L 0.453125 -8.625 L 0.453125 -9.875 L 2.09375 -10.875 L 2.9375 -13.15625 L 4.828125 -13.15625 L 4.828125 -10.84375 L 7.875 -10.84375 L 7.875 -8.625 L 4.828125 -8.625 L 4.828125 -3.390625 C 4.828125 -2.972656 4.945312 -2.664062 5.1875 -2.46875 C 5.425781 -2.269531 5.738281 -2.171875 6.125 -2.171875 Z M 6.125 -2.171875 "/></g></g></g><g fill="rgb(0%, 0%, 0%)" fill-opacity="1"><g transform="translate(199.476073, 212.104919)"><g><path d="M 13.5625 -7.234375 C 13.5625 -4.898438 12.894531 -3.109375 11.5625 -1.859375 C 10.226562 -0.617188 8.304688 0 5.796875 0 L 1.78125 0 L 1.78125 -14.1875 L 6.234375 -14.1875 C 8.554688 -14.1875 10.359375 -13.570312 11.640625 -12.34375 C 12.921875 -11.125 13.5625 -9.421875 13.5625 -7.234375 Z M 10.4375 -7.15625 C 10.4375 -10.195312 9.085938 -11.71875 6.390625 -11.71875 L 4.796875 -11.71875 L 4.796875 -2.484375 L 6.078125 -2.484375 C 8.984375 -2.484375 10.4375 -4.039062 10.4375 -7.15625 Z M 10.4375 -7.15625 "/></g></g></g><g fill="rgb(0%, 0%, 0%)" fill-opacity="1"><g transform="translate(216.63595, 212.104919)"><g><path d="M 6.046875 -8.953125 C 5.421875 -8.953125 4.925781 -8.75 4.5625 -8.34375 C 4.207031 -7.945312 4.003906 -7.382812 3.953125 -6.65625 L 8.109375 -6.65625 C 8.097656 -7.382812 7.90625 -7.945312 7.53125 -8.34375 C 7.164062 -8.75 6.671875 -8.953125 6.046875 -8.953125 Z M 6.46875 0.1875 C 4.71875 0.1875 3.347656 -0.289062 2.359375 -1.25 C 1.378906 -2.21875 0.890625 -3.582031 0.890625 -5.34375 C 0.890625 -7.164062 1.34375 -8.570312 2.25 -9.5625 C 3.164062 -10.550781 4.425781 -11.046875 6.03125 -11.046875 C 7.5625 -11.046875 8.753906 -10.609375 9.609375 -9.734375 C 10.460938 -8.867188 10.890625 -7.664062 10.890625 -6.125 L 10.890625 -4.6875 L 3.890625 -4.6875 C 3.921875 -3.84375 4.171875 -3.1875 4.640625 -2.71875 C 5.109375 -2.25 5.757812 -2.015625 6.59375 -2.015625 C 7.25 -2.015625 7.867188 -2.082031 8.453125 -2.21875 C 9.035156 -2.351562 9.644531 -2.566406 10.28125 -2.859375 L 10.28125 -0.578125 C 9.757812 -0.316406 9.203125 -0.125 8.609375 0 C 8.023438 0.125 7.3125 0.1875 6.46875 0.1875 Z M 6.46875 0.1875 "/></g></g></g><g fill="rgb(0%, 0%, 0%)" fill-opacity="1"><g transform="translate(230.825756, 212.104919)"><g><path d="M 4.140625 0 L 0 -10.84375 L 3.09375 -10.84375 L 5.1875 -4.671875 C 5.425781 -3.890625 5.570312 -3.148438 5.625 -2.453125 L 5.6875 -2.453125 C 5.71875 -3.066406 5.863281 -3.804688 6.125 -4.671875 L 8.203125 -10.84375 L 11.3125 -10.84375 L 7.171875 0 Z M 4.140625 0 "/></g></g></g><g fill="rgb(84.709167%, 16.468811%, 15.289307%)" fill-opacity="1"><g transform="translate(152.570689, 229.31301)"><g><path d="M 2.359375 -0.828125 C 2.554688 -0.828125 2.796875 -0.875 3.078125 -0.96875 L 3.078125 -0.109375 C 2.785156 0.015625 2.4375 0.078125 2.03125 0.078125 C 1.570312 0.078125 1.238281 -0.0351562 1.03125 -0.265625 C 0.820312 -0.492188 0.71875 -0.84375 0.71875 -1.3125 L 0.71875 -3.3125 L 0.171875 -3.3125 L 0.171875 -3.796875 L 0.796875 -4.171875 L 1.125 -5.0625 L 1.859375 -5.0625 L 1.859375 -4.171875 L 3.03125 -4.171875 L 3.03125 -3.3125 L 1.859375 -3.3125 L 1.859375 -1.3125 C 1.859375 -1.144531 1.898438 -1.019531 1.984375 -0.9375 C 2.078125 -0.863281 2.203125 -0.828125 2.359375 -0.828125 Z M 2.359375 -0.828125 "/></g></g></g><g fill="rgb(84.709167%, 16.468811%, 15.289307%)" fill-opacity="1"><g transform="translate(157.748057, 229.31301)"><g><path d="M 2.328125 -3.4375 C 2.085938 -3.4375 1.894531 -3.359375 1.75 -3.203125 C 1.613281 -3.054688 1.535156 -2.84375 1.515625 -2.5625 L 3.125 -2.5625 C 3.113281 -2.84375 3.035156 -3.054688 2.890625 -3.203125 C 2.753906 -3.359375 2.566406 -3.4375 2.328125 -3.4375 Z M 2.484375 0.078125 C 1.816406 0.078125 1.289062 -0.101562 0.90625 -0.46875 C 0.53125 -0.84375 0.34375 -1.375 0.34375 -2.0625 C 0.34375 -2.757812 0.515625 -3.296875 0.859375 -3.671875 C 1.210938 -4.054688 1.695312 -4.25 2.3125 -4.25 C 2.90625 -4.25 3.363281 -4.078125 3.6875 -3.734375 C 4.019531 -3.398438 4.1875 -2.941406 4.1875 -2.359375 L 4.1875 -1.796875 L 1.5 -1.796875 C 1.507812 -1.472656 1.601562 -1.21875 1.78125 -1.03125 C 1.957031 -0.851562 2.207031 -0.765625 2.53125 -0.765625 C 2.78125 -0.765625 3.015625 -0.789062 3.234375 -0.84375 C 3.460938 -0.894531 3.703125 -0.976562 3.953125 -1.09375 L 3.953125 -0.21875 C 3.753906 -0.125 3.539062 -0.0507812 3.3125 0 C 3.082031 0.0507812 2.804688 0.078125 2.484375 0.078125 Z M 2.484375 0.078125 "/></g></g></g><g fill="rgb(84.709167%, 16.468811%, 15.289307%)" fill-opacity="1"><g transform="translate(164.121994, 229.31301)"><g><path d="M 2.296875 0.078125 C 0.992188 0.078125 0.34375 -0.632812 0.34375 -2.0625 C 0.34375 -2.769531 0.519531 -3.3125 0.875 -3.6875 C 1.226562 -4.0625 1.734375 -4.25 2.390625 -4.25 C 2.867188 -4.25 3.300781 -4.15625 3.6875 -3.96875 L 3.359375 -3.078125 C 3.171875 -3.148438 3 -3.207031 2.84375 -3.25 C 2.695312 -3.300781 2.546875 -3.328125 2.390625 -3.328125 C 1.796875 -3.328125 1.5 -2.910156 1.5 -2.078125 C 1.5 -1.253906 1.796875 -0.84375 2.390625 -0.84375 C 2.609375 -0.84375 2.8125 -0.867188 3 -0.921875 C 3.1875 -0.984375 3.375 -1.078125 3.5625 -1.203125 L 3.5625 -0.234375 C 3.375 -0.117188 3.1875 -0.0390625 3 0 C 2.8125 0.0507812 2.578125 0.078125 2.296875 0.078125 Z M 2.296875 0.078125 "/></g></g></g><g fill="rgb(84.709167%, 16.468811%, 15.289307%)" fill-opacity="1"><g transform="translate(169.910695, 229.31301)"><g><path d="M 4.453125 0 L 3.3125 0 L 3.3125 -2.4375 C 3.3125 -3.039062 3.085938 -3.34375 2.640625 -3.34375 C 2.316406 -3.34375 2.082031 -3.234375 1.9375 -3.015625 C 1.800781 -2.796875 1.734375 -2.445312 1.734375 -1.96875 L 1.734375 0 L 0.59375 0 L 0.59375 -5.8125 L 1.734375 -5.8125 L 1.734375 -4.625 C 1.734375 -4.53125 1.722656 -4.3125 1.703125 -3.96875 L 1.6875 -3.640625 L 1.75 -3.640625 C 2 -4.046875 2.398438 -4.25 2.953125 -4.25 C 3.441406 -4.25 3.8125 -4.113281 4.0625 -3.84375 C 4.320312 -3.582031 4.453125 -3.207031 4.453125 -2.71875 Z M 4.453125 0 "/></g></g></g><g fill="rgb(84.709167%, 16.468811%, 15.289307%)" fill-opacity="1"><g transform="translate(176.791591, 229.31301)"><g/></g></g><g fill="rgb(84.709167%, 16.468811%, 15.289307%)" fill-opacity="1"><g transform="translate(180.638186, 229.31301)"><g><path d="M 3 -4.5625 C 2.5625 -4.5625 2.222656 -4.398438 1.984375 -4.078125 C 1.753906 -3.753906 1.640625 -3.300781 1.640625 -2.71875 C 1.640625 -1.5 2.09375 -0.890625 3 -0.890625 C 3.382812 -0.890625 3.847656 -0.984375 4.390625 -1.171875 L 4.390625 -0.203125 C 3.941406 -0.015625 3.441406 0.078125 2.890625 0.078125 C 2.097656 0.078125 1.488281 -0.160156 1.0625 -0.640625 C 0.644531 -1.128906 0.4375 -1.820312 0.4375 -2.71875 C 0.4375 -3.289062 0.539062 -3.785156 0.75 -4.203125 C 0.957031 -4.628906 1.253906 -4.957031 1.640625 -5.1875 C 2.023438 -5.414062 2.476562 -5.53125 3 -5.53125 C 3.53125 -5.53125 4.0625 -5.40625 4.59375 -5.15625 L 4.234375 -4.203125 C 4.023438 -4.304688 3.816406 -4.390625 3.609375 -4.453125 C 3.398438 -4.523438 3.195312 -4.5625 3 -4.5625 Z M 3 -4.5625 "/></g></g></g><g fill="rgb(84.709167%, 16.468811%, 15.289307%)" fill-opacity="1"><g transform="translate(187.366253, 229.31301)"><g><path d="M 5.640625 -2.734375 C 5.640625 -1.828125 5.414062 -1.128906 4.96875 -0.640625 C 4.519531 -0.160156 3.878906 0.078125 3.046875 0.078125 C 2.203125 0.078125 1.554688 -0.160156 1.109375 -0.640625 C 0.660156 -1.128906 0.4375 -1.828125 0.4375 -2.734375 C 0.4375 -3.648438 0.660156 -4.347656 1.109375 -4.828125 C 1.566406 -5.304688 2.210938 -5.546875 3.046875 -5.546875 C 3.890625 -5.546875 4.53125 -5.300781 4.96875 -4.8125 C 5.414062 -4.332031 5.640625 -3.640625 5.640625 -2.734375 Z M 1.65625 -2.734375 C 1.65625 -2.128906 1.769531 -1.671875 2 -1.359375 C 2.226562 -1.046875 2.578125 -0.890625 3.046875 -0.890625 C 3.960938 -0.890625 4.421875 -1.503906 4.421875 -2.734375 C 4.421875 -3.960938 3.960938 -4.578125 3.046875 -4.578125 C 2.585938 -4.578125 2.238281 -4.421875 2 -4.109375 C 1.769531 -3.804688 1.65625 -3.347656 1.65625 -2.734375 Z M 1.65625 -2.734375 "/></g></g></g><g fill="rgb(84.709167%, 16.468811%, 15.289307%)" fill-opacity="1"><g transform="translate(195.3058, 229.31301)"><g><path d="M 3 0 L 1.6875 -4.28125 L 1.65625 -4.28125 C 1.695312 -3.40625 1.71875 -2.820312 1.71875 -2.53125 L 1.71875 0 L 0.6875 0 L 0.6875 -5.453125 L 2.265625 -5.453125 L 3.546875 -1.28125 L 3.578125 -1.28125 L 4.9375 -5.453125 L 6.515625 -5.453125 L 6.515625 0 L 5.4375 0 L 5.4375 -2.578125 C 5.4375 -2.703125 5.4375 -2.84375 5.4375 -3 C 5.445312 -3.15625 5.46875 -3.578125 5.5 -4.265625 L 5.46875 -4.265625 L 4.0625 0 Z M 3 0 "/></g></g></g><g fill="rgb(84.709167%, 16.468811%, 15.289307%)" fill-opacity="1"><g transform="translate(204.367372, 229.31301)"><g><path d="M 1.84375 -2.890625 L 2.21875 -2.890625 C 2.570312 -2.890625 2.835938 -2.957031 3.015625 -3.09375 C 3.191406 -3.238281 3.28125 -3.445312 3.28125 -3.71875 C 3.28125 -3.988281 3.207031 -4.1875 3.0625 -4.3125 C 2.914062 -4.4375 2.6875 -4.5 2.375 -4.5 L 1.84375 -4.5 Z M 4.453125 -3.75 C 4.453125 -3.164062 4.269531 -2.71875 3.90625 -2.40625 C 3.539062 -2.09375 3.019531 -1.9375 2.34375 -1.9375 L 1.84375 -1.9375 L 1.84375 0 L 0.6875 0 L 0.6875 -5.453125 L 2.421875 -5.453125 C 3.085938 -5.453125 3.59375 -5.304688 3.9375 -5.015625 C 4.28125 -4.734375 4.453125 -4.3125 4.453125 -3.75 Z M 4.453125 -3.75 "/></g></g></g><g fill="rgb(84.709167%, 16.468811%, 15.289307%)" fill-opacity="1"><g transform="translate(211.02461, 229.31301)"><g><path d="M 4.03125 0 L 3.625 -1.296875 L 1.640625 -1.296875 L 1.25 0 L 0 0 L 1.921875 -5.484375 L 3.34375 -5.484375 L 5.265625 0 Z M 3.359375 -2.265625 C 2.992188 -3.441406 2.785156 -4.109375 2.734375 -4.265625 C 2.691406 -4.421875 2.660156 -4.539062 2.640625 -4.625 C 2.554688 -4.3125 2.320312 -3.523438 1.9375 -2.265625 Z M 3.359375 -2.265625 "/></g></g></g><g fill="rgb(84.709167%, 16.468811%, 15.289307%)" fill-opacity="1"><g transform="translate(218.155263, 229.31301)"><g><path d="M 5.53125 0 L 4.0625 0 L 1.6875 -4.125 L 1.65625 -4.125 C 1.695312 -3.394531 1.71875 -2.875 1.71875 -2.5625 L 1.71875 0 L 0.6875 0 L 0.6875 -5.453125 L 2.140625 -5.453125 L 4.515625 -1.375 L 4.546875 -1.375 C 4.503906 -2.082031 4.484375 -2.582031 4.484375 -2.875 L 4.484375 -5.453125 L 5.53125 -5.453125 Z M 5.53125 0 "/></g></g></g><g fill="rgb(84.709167%, 16.468811%, 15.289307%)" fill-opacity="1"><g transform="translate(226.225281, 229.31301)"><g><path d="M 2.390625 -3.203125 L 3.515625 -5.453125 L 4.765625 -5.453125 L 2.953125 -2.125 L 2.953125 0 L 1.8125 0 L 1.8125 -2.078125 L 0 -5.453125 L 1.25 -5.453125 Z M 2.390625 -3.203125 "/></g></g></g></svg>