<svg xmlns="http://www.w3.org/2000/svg" xmlns:xlink="http://www.w3.org/1999/xlink" width="70" zoomAndPan="magnify" viewBox="0 0 52.5 30.000001" height="40" preserveAspectRatio="xMidYMid meet" version="1.0"><defs><g/><clipPath id="id1"><path d="M 22.476562 8.199219 L 29.804688 8.199219 L 29.804688 16.261719 L 22.476562 16.261719 Z M 22.476562 8.199219 " clip-rule="nonzero"/></clipPath></defs><g clip-path="url(#id1)"><path fill="rgb(84.709167%, 16.468811%, 15.289307%)" d="M 22.476562 11.289062 L 22.476562 14.441406 L 23.226562 14.894531 L 23.226562 10.46875 L 24.617188 9.632812 L 27.105469 12.234375 L 27.851562 13.015625 L 27.851562 8.839844 L 27.429688 8.585938 C 27.320312 8.519531 27.210938 8.460938 27.105469 8.414062 C 26.351562 8.078125 25.589844 8.140625 24.824219 8.601562 L 24.738281 8.652344 L 24.308594 8.914062 L 24.066406 9.058594 L 22.476562 10.019531 Z M 29.804688 13.171875 L 29.804688 10.019531 L 29.054688 9.566406 L 29.054688 13.992188 L 27.667969 14.828125 L 25.179688 12.226562 L 24.429688 11.445312 L 24.429688 15.621094 L 24.851562 15.875 C 24.960938 15.941406 25.070312 16 25.179688 16.046875 C 25.929688 16.382812 26.691406 16.320312 27.457031 15.859375 L 27.542969 15.808594 L 27.972656 15.546875 L 28.214844 15.402344 L 29.804688 14.441406 Z M 26.996094 15.234375 C 26.394531 15.566406 25.832031 15.566406 25.226562 15.199219 L 25.179688 15.167969 L 25.179688 13.332031 Z M 25.289062 9.226562 C 25.886719 8.894531 26.449219 8.894531 27.054688 9.261719 L 27.105469 9.292969 L 27.105469 11.128906 Z M 25.289062 9.226562 " fill-opacity="1" fill-rule="evenodd"/></g><g fill="rgb(0%, 0%, 0%)" fill-opacity="1"><g transform="translate(18.753552, 19.500864)"><g><path d="M 2.140625 0 L 1.578125 0 L 0.65625 -1.609375 L 0.640625 -1.609375 C 0.660156 -1.316406 0.671875 -1.113281 0.671875 -1 L 0.671875 0 L 0.265625 0 L 0.265625 -2.125 L 0.828125 -2.125 L 1.75 -0.53125 L 1.765625 -0.53125 C 1.753906 -0.800781 1.75 -0.992188 1.75 -1.109375 L 1.75 -2.125 L 2.140625 -2.125 Z M 2.140625 0 "/></g></g></g><g fill="rgb(0%, 0%, 0%)" fill-opacity="1"><g transform="translate(21.530311, 19.500864)"><g><path d="M 0.90625 -1.34375 C 0.8125 -1.34375 0.738281 -1.3125 0.6875 -1.25 C 0.632812 -1.1875 0.601562 -1.101562 0.59375 -1 L 1.21875 -1 C 1.207031 -1.101562 1.175781 -1.1875 1.125 -1.25 C 1.070312 -1.3125 1 -1.34375 0.90625 -1.34375 Z M 0.96875 0.03125 C 0.707031 0.03125 0.503906 -0.0390625 0.359375 -0.1875 C 0.210938 -0.332031 0.140625 -0.535156 0.140625 -0.796875 C 0.140625 -1.066406 0.207031 -1.273438 0.34375 -1.421875 C 0.476562 -1.578125 0.664062 -1.65625 0.90625 -1.65625 C 1.132812 -1.65625 1.3125 -1.585938 1.4375 -1.453125 C 1.5625 -1.328125 1.625 -1.148438 1.625 -0.921875 L 1.625 -0.703125 L 0.578125 -0.703125 C 0.585938 -0.578125 0.625 -0.476562 0.6875 -0.40625 C 0.757812 -0.332031 0.859375 -0.296875 0.984375 -0.296875 C 1.078125 -0.296875 1.164062 -0.304688 1.25 -0.328125 C 1.34375 -0.347656 1.4375 -0.378906 1.53125 -0.421875 L 1.53125 -0.078125 C 1.457031 -0.046875 1.375 -0.0195312 1.28125 0 C 1.195312 0.0195312 1.09375 0.03125 0.96875 0.03125 Z M 0.96875 0.03125 "/></g></g></g><g fill="rgb(0%, 0%, 0%)" fill-opacity="1"><g transform="translate(23.647987, 19.500864)"><g><path d="M 0.5625 -0.828125 L 0.046875 -1.625 L 0.546875 -1.625 L 0.859375 -1.109375 L 1.171875 -1.625 L 1.671875 -1.625 L 1.15625 -0.828125 L 1.703125 0 L 1.203125 0 L 0.859375 -0.5625 L 0.515625 0 L 0.015625 0 Z M 0.5625 -0.828125 "/></g></g></g><g fill="rgb(0%, 0%, 0%)" fill-opacity="1"><g transform="translate(25.728001, 19.500864)"><g><path d="M 0.921875 -0.328125 C 0.992188 -0.328125 1.082031 -0.34375 1.1875 -0.375 L 1.1875 -0.046875 C 1.082031 0.00390625 0.945312 0.03125 0.78125 0.03125 C 0.601562 0.03125 0.472656 -0.0078125 0.390625 -0.09375 C 0.316406 -0.1875 0.28125 -0.320312 0.28125 -0.5 L 0.28125 -1.28125 L 0.0625 -1.28125 L 0.0625 -1.46875 L 0.3125 -1.625 L 0.4375 -1.96875 L 0.71875 -1.96875 L 0.71875 -1.625 L 1.171875 -1.625 L 1.171875 -1.28125 L 0.71875 -1.28125 L 0.71875 -0.5 C 0.71875 -0.4375 0.734375 -0.390625 0.765625 -0.359375 C 0.804688 -0.335938 0.859375 -0.328125 0.921875 -0.328125 Z M 0.921875 -0.328125 "/></g></g></g><g fill="rgb(0%, 0%, 0%)" fill-opacity="1"><g transform="translate(27.380698, 19.500864)"><g><path d="M 2.03125 -1.078125 C 2.03125 -0.734375 1.925781 -0.46875 1.71875 -0.28125 C 1.519531 -0.09375 1.234375 0 0.859375 0 L 0.265625 0 L 0.265625 -2.125 L 0.9375 -2.125 C 1.28125 -2.125 1.546875 -2.03125 1.734375 -1.84375 C 1.929688 -1.664062 2.03125 -1.410156 2.03125 -1.078125 Z M 1.5625 -1.0625 C 1.5625 -1.519531 1.359375 -1.75 0.953125 -1.75 L 0.71875 -1.75 L 0.71875 -0.375 L 0.90625 -0.375 C 1.34375 -0.375 1.5625 -0.601562 1.5625 -1.0625 Z M 1.5625 -1.0625 "/></g></g></g><g fill="rgb(0%, 0%, 0%)" fill-opacity="1"><g transform="translate(29.941625, 19.500864)"><g><path d="M 0.90625 -1.34375 C 0.8125 -1.34375 0.738281 -1.3125 0.6875 -1.25 C 0.632812 -1.1875 0.601562 -1.101562 0.59375 -1 L 1.21875 -1 C 1.207031 -1.101562 1.175781 -1.1875 1.125 -1.25 C 1.070312 -1.3125 1 -1.34375 0.90625 -1.34375 Z M 0.96875 0.03125 C 0.707031 0.03125 0.503906 -0.0390625 0.359375 -0.1875 C 0.210938 -0.332031 0.140625 -0.535156 0.140625 -0.796875 C 0.140625 -1.066406 0.207031 -1.273438 0.34375 -1.421875 C 0.476562 -1.578125 0.664062 -1.65625 0.90625 -1.65625 C 1.132812 -1.65625 1.3125 -1.585938 1.4375 -1.453125 C 1.5625 -1.328125 1.625 -1.148438 1.625 -0.921875 L 1.625 -0.703125 L 0.578125 -0.703125 C 0.585938 -0.578125 0.625 -0.476562 0.6875 -0.40625 C 0.757812 -0.332031 0.859375 -0.296875 0.984375 -0.296875 C 1.078125 -0.296875 1.164062 -0.304688 1.25 -0.328125 C 1.34375 -0.347656 1.4375 -0.378906 1.53125 -0.421875 L 1.53125 -0.078125 C 1.457031 -0.046875 1.375 -0.0195312 1.28125 0 C 1.195312 0.0195312 1.09375 0.03125 0.96875 0.03125 Z M 0.96875 0.03125 "/></g></g></g><g fill="rgb(0%, 0%, 0%)" fill-opacity="1"><g transform="translate(32.0593, 19.500864)"><g><path d="M 0.625 0 L 0 -1.625 L 0.46875 -1.625 L 0.78125 -0.703125 C 0.8125 -0.578125 0.832031 -0.460938 0.84375 -0.359375 C 0.851562 -0.453125 0.878906 -0.566406 0.921875 -0.703125 L 1.21875 -1.625 L 1.6875 -1.625 L 1.078125 0 Z M 0.625 0 "/></g></g></g><g fill="rgb(84.709167%, 16.468811%, 15.289307%)" fill-opacity="1"><g transform="translate(19.80313, 20.891732)"><g><path d="M 0.515625 -0.203125 C 0.515625 -0.140625 0.488281 -0.0859375 0.4375 -0.046875 C 0.394531 -0.00390625 0.332031 0.015625 0.25 0.015625 C 0.175781 0.015625 0.109375 0 0.046875 -0.03125 L 0.046875 -0.171875 C 0.0976562 -0.148438 0.140625 -0.132812 0.171875 -0.125 C 0.203125 -0.113281 0.234375 -0.109375 0.265625 -0.109375 C 0.296875 -0.109375 0.320312 -0.113281 0.34375 -0.125 C 0.363281 -0.144531 0.375 -0.164062 0.375 -0.1875 C 0.375 -0.207031 0.367188 -0.222656 0.359375 -0.234375 C 0.347656 -0.242188 0.332031 -0.253906 0.3125 -0.265625 C 0.300781 -0.273438 0.273438 -0.289062 0.234375 -0.3125 C 0.179688 -0.332031 0.144531 -0.351562 0.125 -0.375 C 0.101562 -0.394531 0.0859375 -0.414062 0.078125 -0.4375 C 0.0664062 -0.46875 0.0625 -0.5 0.0625 -0.53125 C 0.0625 -0.59375 0.0820312 -0.640625 0.125 -0.671875 C 0.164062 -0.710938 0.222656 -0.734375 0.296875 -0.734375 C 0.335938 -0.734375 0.375 -0.726562 0.40625 -0.71875 C 0.4375 -0.707031 0.472656 -0.695312 0.515625 -0.6875 L 0.46875 -0.5625 C 0.425781 -0.582031 0.390625 -0.59375 0.359375 -0.59375 C 0.335938 -0.601562 0.316406 -0.609375 0.296875 -0.609375 C 0.265625 -0.609375 0.238281 -0.597656 0.21875 -0.578125 C 0.207031 -0.566406 0.203125 -0.550781 0.203125 -0.53125 C 0.203125 -0.519531 0.203125 -0.507812 0.203125 -0.5 C 0.210938 -0.488281 0.222656 -0.476562 0.234375 -0.46875 C 0.253906 -0.457031 0.289062 -0.441406 0.34375 -0.421875 C 0.40625 -0.390625 0.445312 -0.351562 0.46875 -0.3125 C 0.5 -0.28125 0.515625 -0.242188 0.515625 -0.203125 Z M 0.515625 -0.203125 "/></g></g></g><g fill="rgb(84.709167%, 16.468811%, 15.289307%)" fill-opacity="1"><g transform="translate(20.609926, 20.891732)"><g><path d="M 0.09375 0 L 0.09375 -0.71875 L 0.25 -0.71875 L 0.25 -0.125 L 0.53125 -0.125 L 0.53125 0 Z M 0.09375 0 "/></g></g></g><g fill="rgb(84.709167%, 16.468811%, 15.289307%)" fill-opacity="1"><g transform="translate(21.431095, 20.891732)"><g><path d="M 0.75 -0.359375 C 0.75 -0.242188 0.71875 -0.148438 0.65625 -0.078125 C 0.601562 -0.015625 0.519531 0.015625 0.40625 0.015625 C 0.289062 0.015625 0.203125 -0.015625 0.140625 -0.078125 C 0.0859375 -0.148438 0.0625 -0.242188 0.0625 -0.359375 C 0.0625 -0.484375 0.0859375 -0.578125 0.140625 -0.640625 C 0.203125 -0.703125 0.289062 -0.734375 0.40625 -0.734375 C 0.519531 -0.734375 0.601562 -0.703125 0.65625 -0.640625 C 0.71875 -0.578125 0.75 -0.484375 0.75 -0.359375 Z M 0.21875 -0.359375 C 0.21875 -0.273438 0.234375 -0.210938 0.265625 -0.171875 C 0.296875 -0.140625 0.34375 -0.125 0.40625 -0.125 C 0.53125 -0.125 0.59375 -0.203125 0.59375 -0.359375 C 0.59375 -0.523438 0.53125 -0.609375 0.40625 -0.609375 C 0.34375 -0.609375 0.296875 -0.585938 0.265625 -0.546875 C 0.234375 -0.503906 0.21875 -0.441406 0.21875 -0.359375 Z M 0.21875 -0.359375 "/></g></g></g><g fill="rgb(84.709167%, 16.468811%, 15.289307%)" fill-opacity="1"><g transform="translate(22.486683, 20.891732)"><g><path d="M 0.359375 -0.40625 L 0.65625 -0.40625 L 0.65625 -0.03125 C 0.601562 -0.0195312 0.554688 -0.0078125 0.515625 0 C 0.472656 0.0078125 0.429688 0.015625 0.390625 0.015625 C 0.285156 0.015625 0.203125 -0.015625 0.140625 -0.078125 C 0.0859375 -0.148438 0.0625 -0.242188 0.0625 -0.359375 C 0.0625 -0.472656 0.09375 -0.5625 0.15625 -0.625 C 0.226562 -0.695312 0.320312 -0.734375 0.4375 -0.734375 C 0.507812 -0.734375 0.582031 -0.71875 0.65625 -0.6875 L 0.609375 -0.5625 C 0.546875 -0.59375 0.488281 -0.609375 0.4375 -0.609375 C 0.375 -0.609375 0.320312 -0.582031 0.28125 -0.53125 C 0.238281 -0.488281 0.21875 -0.429688 0.21875 -0.359375 C 0.21875 -0.285156 0.234375 -0.226562 0.265625 -0.1875 C 0.296875 -0.144531 0.34375 -0.125 0.40625 -0.125 C 0.4375 -0.125 0.46875 -0.125 0.5 -0.125 L 0.5 -0.28125 L 0.359375 -0.28125 Z M 0.359375 -0.40625 "/></g></g></g><g fill="rgb(84.709167%, 16.468811%, 15.289307%)" fill-opacity="1"><g transform="translate(23.469419, 20.891732)"><g><path d="M 0.53125 0 L 0.484375 -0.171875 L 0.21875 -0.171875 L 0.171875 0 L 0 0 L 0.25 -0.734375 L 0.4375 -0.734375 L 0.703125 0 Z M 0.453125 -0.296875 C 0.398438 -0.453125 0.367188 -0.539062 0.359375 -0.5625 C 0.359375 -0.582031 0.351562 -0.597656 0.34375 -0.609375 C 0.332031 -0.566406 0.300781 -0.460938 0.25 -0.296875 Z M 0.453125 -0.296875 "/></g></g></g><g fill="rgb(84.709167%, 16.468811%, 15.289307%)" fill-opacity="1"><g transform="translate(24.417462, 20.891732)"><g><path d="M 0.734375 0 L 0.53125 0 L 0.21875 -0.546875 C 0.226562 -0.453125 0.234375 -0.382812 0.234375 -0.34375 L 0.234375 0 L 0.09375 0 L 0.09375 -0.71875 L 0.28125 -0.71875 L 0.59375 -0.1875 L 0.609375 -0.1875 C 0.597656 -0.28125 0.59375 -0.34375 0.59375 -0.375 L 0.59375 -0.71875 L 0.734375 -0.71875 Z M 0.734375 0 "/></g></g></g><g fill="rgb(84.709167%, 16.468811%, 15.289307%)" fill-opacity="1"><g transform="translate(25.490397, 20.891732)"><g/></g></g><g fill="rgb(84.709167%, 16.468811%, 15.289307%)" fill-opacity="1"><g transform="translate(26.001814, 20.891732)"><g><path d="M 0.40625 -0.609375 C 0.34375 -0.609375 0.296875 -0.585938 0.265625 -0.546875 C 0.234375 -0.503906 0.21875 -0.441406 0.21875 -0.359375 C 0.21875 -0.203125 0.28125 -0.125 0.40625 -0.125 C 0.445312 -0.125 0.503906 -0.132812 0.578125 -0.15625 L 0.578125 -0.03125 C 0.523438 0 0.460938 0.015625 0.390625 0.015625 C 0.285156 0.015625 0.203125 -0.015625 0.140625 -0.078125 C 0.0859375 -0.148438 0.0625 -0.242188 0.0625 -0.359375 C 0.0625 -0.429688 0.0703125 -0.492188 0.09375 -0.546875 C 0.125 -0.609375 0.164062 -0.65625 0.21875 -0.6875 C 0.269531 -0.71875 0.332031 -0.734375 0.40625 -0.734375 C 0.46875 -0.734375 0.535156 -0.71875 0.609375 -0.6875 L 0.5625 -0.5625 C 0.53125 -0.570312 0.5 -0.582031 0.46875 -0.59375 C 0.445312 -0.601562 0.425781 -0.609375 0.40625 -0.609375 Z M 0.40625 -0.609375 "/></g></g></g><g fill="rgb(84.709167%, 16.468811%, 15.289307%)" fill-opacity="1"><g transform="translate(26.896332, 20.891732)"><g><path d="M 0.75 -0.359375 C 0.75 -0.242188 0.71875 -0.148438 0.65625 -0.078125 C 0.601562 -0.015625 0.519531 0.015625 0.40625 0.015625 C 0.289062 0.015625 0.203125 -0.015625 0.140625 -0.078125 C 0.0859375 -0.148438 0.0625 -0.242188 0.0625 -0.359375 C 0.0625 -0.484375 0.0859375 -0.578125 0.140625 -0.640625 C 0.203125 -0.703125 0.289062 -0.734375 0.40625 -0.734375 C 0.519531 -0.734375 0.601562 -0.703125 0.65625 -0.640625 C 0.71875 -0.578125 0.75 -0.484375 0.75 -0.359375 Z M 0.21875 -0.359375 C 0.21875 -0.273438 0.234375 -0.210938 0.265625 -0.171875 C 0.296875 -0.140625 0.34375 -0.125 0.40625 -0.125 C 0.53125 -0.125 0.59375 -0.203125 0.59375 -0.359375 C 0.59375 -0.523438 0.53125 -0.609375 0.40625 -0.609375 C 0.34375 -0.609375 0.296875 -0.585938 0.265625 -0.546875 C 0.234375 -0.503906 0.21875 -0.441406 0.21875 -0.359375 Z M 0.21875 -0.359375 "/></g></g></g><g fill="rgb(84.709167%, 16.468811%, 15.289307%)" fill-opacity="1"><g transform="translate(27.95192, 20.891732)"><g><path d="M 0.390625 0 L 0.21875 -0.5625 C 0.226562 -0.445312 0.234375 -0.375 0.234375 -0.34375 L 0.234375 0 L 0.09375 0 L 0.09375 -0.71875 L 0.296875 -0.71875 L 0.46875 -0.171875 L 0.65625 -0.71875 L 0.859375 -0.71875 L 0.859375 0 L 0.71875 0 L 0.71875 -0.34375 C 0.71875 -0.363281 0.71875 -0.382812 0.71875 -0.40625 C 0.71875 -0.425781 0.722656 -0.476562 0.734375 -0.5625 L 0.71875 -0.5625 L 0.53125 0 Z M 0.390625 0 "/></g></g></g><g fill="rgb(84.709167%, 16.468811%, 15.289307%)" fill-opacity="1"><g transform="translate(29.156685, 20.891732)"><g><path d="M 0.25 -0.390625 L 0.296875 -0.390625 C 0.335938 -0.390625 0.367188 -0.394531 0.390625 -0.40625 C 0.421875 -0.425781 0.4375 -0.457031 0.4375 -0.5 C 0.4375 -0.53125 0.425781 -0.550781 0.40625 -0.5625 C 0.382812 -0.582031 0.351562 -0.59375 0.3125 -0.59375 L 0.25 -0.59375 Z M 0.59375 -0.5 C 0.59375 -0.414062 0.566406 -0.351562 0.515625 -0.3125 C 0.472656 -0.28125 0.40625 -0.265625 0.3125 -0.265625 L 0.25 -0.265625 L 0.25 0 L 0.09375 0 L 0.09375 -0.71875 L 0.328125 -0.71875 C 0.410156 -0.71875 0.472656 -0.695312 0.515625 -0.65625 C 0.566406 -0.625 0.59375 -0.570312 0.59375 -0.5 Z M 0.59375 -0.5 "/></g></g></g><g fill="rgb(84.709167%, 16.468811%, 15.289307%)" fill-opacity="1"><g transform="translate(30.041787, 20.891732)"><g><path d="M 0.53125 0 L 0.484375 -0.171875 L 0.21875 -0.171875 L 0.171875 0 L 0 0 L 0.25 -0.734375 L 0.4375 -0.734375 L 0.703125 0 Z M 0.453125 -0.296875 C 0.398438 -0.453125 0.367188 -0.539062 0.359375 -0.5625 C 0.359375 -0.582031 0.351562 -0.597656 0.34375 -0.609375 C 0.332031 -0.566406 0.300781 -0.460938 0.25 -0.296875 Z M 0.453125 -0.296875 "/></g></g></g><g fill="rgb(84.709167%, 16.468811%, 15.289307%)" fill-opacity="1"><g transform="translate(30.98983, 20.891732)"><g><path d="M 0.734375 0 L 0.53125 0 L 0.21875 -0.546875 C 0.226562 -0.453125 0.234375 -0.382812 0.234375 -0.34375 L 0.234375 0 L 0.09375 0 L 0.09375 -0.71875 L 0.28125 -0.71875 L 0.59375 -0.1875 L 0.609375 -0.1875 C 0.597656 -0.28125 0.59375 -0.34375 0.59375 -0.375 L 0.59375 -0.71875 L 0.734375 -0.71875 Z M 0.734375 0 "/></g></g></g><g fill="rgb(84.709167%, 16.468811%, 15.289307%)" fill-opacity="1"><g transform="translate(32.062764, 20.891732)"><g><path d="M 0.3125 -0.421875 L 0.46875 -0.71875 L 0.640625 -0.71875 L 0.390625 -0.28125 L 0.390625 0 L 0.234375 0 L 0.234375 -0.28125 L 0 -0.71875 L 0.171875 -0.71875 Z M 0.3125 -0.421875 "/></g></g></g></svg>